<svg width="546" height="389" viewBox="0 0 546 389" fill="none" xmlns="http://www.w3.org/2000/svg">
<g clip-path="url(#clip0_1_3066)">
<path d="M360.472 266.452H325.599V388.267H360.472V266.452Z" fill="#D7F0FF"/>
<path d="M390 250H356V388H390V250Z" fill="#D7F0FF"/>
<path d="M420 234H386V375H420V234Z" fill="#D7F0FF"/>
<path d="M399 235H365V376H399V235Z" fill="#D7F0FF"/>
<path d="M489 235H455V376H489V235Z" fill="#D7F0FF"/>
<path d="M449 235H415V376H449V235Z" fill="#D7F0FF"/>
<path d="M522 301H458V396H522V301Z" fill="#D7F0FF"/>
<path d="M360.524 256.093H337.562V336.274H360.524V256.093Z" fill="#D7F0FF"/>
<path d="M391 238H368V329H391V238Z" fill="#D7F0FF"/>
<path d="M421 222H398V315H421V222Z" fill="#D7F0FF"/>
<path d="M400 223H377V316H400V223Z" fill="#D7F0FF"/>
<path d="M490 223H467V316H490V223Z" fill="#D7F0FF"/>
<path d="M450 223H427V316H450V223Z" fill="#D7F0FF"/>
<path d="M310.187 252.541H315.023L312.545 221.287L310.187 252.541Z" fill="#D8F0EF"/>
<g opacity="0.19">
<path d="M542.183 6.12965C542.48 6.27783 542.628 6.52033 542.466 6.78977L540.068 10.71C539.851 11.0483 539.561 11.3337 539.22 11.5453L526.974 19.6283C526.442 19.9725 526.053 20.4992 525.882 21.1095C525.711 21.7198 525.769 22.3716 526.044 22.9424C526.125 23.0636 527.634 25.502 529.762 28.8834C530.665 28.2098 531.864 27.5362 532.996 26.7953L537.455 29.0451C535.791 30.4489 533.856 31.4946 531.77 32.1166C534.599 36.6162 537.697 41.5469 539.179 43.7966C542.21 48.4579 539.287 49.9128 539.179 49.9936C538.236 49.1314 520.224 32.6824 518.513 30.9042C517.746 30.1677 516.869 29.5543 515.914 29.0855C515.261 28.7452 514.58 28.4613 513.879 28.2368L506.214 33.2617L499.006 37.4649C498.473 37.7987 498.073 38.3089 497.876 38.9069C497.679 39.5049 497.698 40.1529 497.929 40.7385C498.845 43.3386 499.559 46.2215 499.599 46.3832L497.861 47.5148C496.13 45.3508 494.262 43.299 492.271 41.3717L491.476 40.8598L488.903 41.7355L486.909 43.0826L485.858 42.5438L487.852 41.1966L488.943 39.5934L488.04 39.2297C486.437 38.637 477.263 36.8991 476.778 36.8183L478.516 35.6732C478.772 35.6732 483.905 35.6732 488.418 35.9157C490.316 36.1158 492.232 35.7552 493.928 34.8783L500.232 30.2306L507.898 25.2056C507.362 24.7909 506.784 24.4341 506.173 24.1414C505.079 23.5855 503.921 23.1648 502.725 22.8885C499.438 22.1341 468.87 13.9163 467.267 13.4583C467.375 13.364 469.53 11.5049 477.923 12.65C481.965 13.2158 490.843 14.3609 498.939 15.3443C499.64 13.7008 503.29 11.8012 503.492 11.7069L507.952 13.9702C506.86 14.7112 505.796 15.479 504.759 16.0987L515.455 17.4459C515.644 17.4459 519.16 17.7288 521.033 16.5029L533.279 8.41984C533.699 8.16003 534.152 7.95624 534.626 7.81361L541.065 5.94104C541.448 5.87045 541.844 5.93723 542.183 6.12965Z" fill="#5F3978"/>
</g>
<path d="M545.552 0.148191C545.848 0.309852 545.996 0.552343 545.835 0.821778L543.437 4.74206C543.217 5.07833 542.928 5.36324 542.588 5.5773L530.329 13.6603C529.8 14.0042 529.415 14.5294 529.246 15.1373C529.077 15.7451 529.137 16.3937 529.413 16.9609C529.413 17.0957 531.002 19.534 533.131 22.9154C534.033 22.2419 535.232 21.5683 536.364 20.8139L540.823 23.0771C539.156 24.4759 537.222 25.5209 535.138 26.1487C537.954 30.6482 541.066 35.5789 542.534 37.8287C545.579 42.4764 542.655 43.9448 542.534 44.0257C541.578 43.1635 523.566 26.7145 521.855 24.9362C521.099 24.1914 520.225 23.5769 519.268 23.1175C518.613 22.7824 517.933 22.4987 517.234 22.2688L509.569 27.2938L502.348 31.4969C501.816 31.8327 501.419 32.3438 501.225 32.9416C501.03 33.5395 501.051 34.1864 501.284 34.7706C502.2 37.3706 502.914 40.2536 502.954 40.4152L501.216 41.5469C499.479 39.3831 497.608 37.3313 495.612 35.4037L494.831 34.8918L492.257 35.7675L490.264 37.1147L489.199 36.5758L491.193 35.2286L492.298 33.6255L491.395 33.2617C489.792 32.669 480.618 30.9311 480.119 30.8368L481.857 29.7052C482.127 29.7052 487.246 29.7052 491.772 29.9477C493.667 30.1484 495.578 29.7876 497.269 28.9104L503.587 24.2491L511.253 19.2376C510.714 18.8268 510.137 18.4703 509.528 18.1734C508.429 17.6177 507.266 17.197 506.066 16.9205C502.792 16.1661 472.225 7.94832 470.608 7.49029C470.73 7.39598 472.872 5.5369 481.264 6.68199C485.306 7.23433 494.184 8.3929 502.294 9.37634C502.994 7.73279 506.645 5.83328 506.834 5.73898L511.293 8.00222C510.202 8.72969 509.151 9.51106 508.1 10.1173L518.797 11.4645C518.985 11.4645 522.515 11.7474 524.374 10.5214L536.633 2.43838C537.05 2.17034 537.504 1.96601 537.981 1.83216L544.407 -0.0404127C544.799 -0.10737 545.202 -0.0409644 545.552 0.148191Z" fill="#23A8FA"/>
<path d="M442.316 391C503.265 391 489.717 378.364 489.717 364.714C489.717 351.065 440.308 340 379.358 340C318.409 340 269 351.065 269 364.714C269 378.364 381.367 391 442.316 391Z" fill="#D7F0FF"/>
<path d="M406.308 57.5244C406.308 57.5244 405.162 69.2313 396.635 75.6573C396.635 75.6573 404.718 75.2801 408.274 64.2602L406.308 57.5244Z" fill="#5E433C"/>
<path d="M458.403 159.505C458.403 159.505 474.367 205.889 467.079 266.013C466.715 269.058 468.304 272.924 467.995 275.847C467.617 279.512 465.3 282.193 465.044 285.682C460.895 334.449 464.963 364.815 464.963 364.815L451.788 366.27C451.788 366.27 434.005 305.97 442.25 272.614C442.25 272.614 414.04 191.447 419.348 160.704L458.403 159.505Z" fill="#FFC685"/>
<path d="M483.999 374.124C473.222 370.648 465.637 364.33 464.761 363.158C465.314 364.882 453.566 364.909 451.505 365.152C450.533 369.032 449.866 372.982 449.511 376.966C449.447 377.543 449.581 378.125 449.892 378.615C450.203 379.105 450.673 379.474 451.222 379.661C452.883 380.368 454.717 380.565 456.49 380.226C456.49 380.226 460.181 378.704 474.677 383.042C484.323 385.925 491.745 382.934 494.197 381.25C496.649 379.566 495.598 377.842 483.999 374.124Z" fill="#FFAD2B"/>
<path d="M451.465 365.111C451.465 365.111 455.143 371.631 461.232 363.764L451.465 365.111Z" fill="#FFC685"/>
<path d="M461.407 365.475C461.407 365.475 458.713 362.888 458.174 360.867C457.635 358.847 462.081 357.904 464.209 358.523C466.338 359.143 465.004 364.384 465.004 364.384L461.407 365.475Z" fill="#FFAD2B"/>
<path d="M494.48 378.569L494.144 378.812C491.692 380.496 484.269 383.487 474.623 380.604C460.127 376.266 456.436 377.788 456.436 377.788C454.663 378.126 452.829 377.929 451.169 377.222C450.798 377.09 450.464 376.874 450.19 376.591C449.917 376.309 449.712 375.967 449.593 375.592C449.593 376.077 449.498 376.535 449.458 376.939C449.393 377.516 449.527 378.098 449.839 378.588C450.15 379.078 450.619 379.447 451.169 379.634C452.829 380.341 454.663 380.538 456.436 380.199C456.436 380.199 460.127 378.677 474.623 383.015C484.269 385.898 491.692 382.907 494.144 381.223C495.369 380.388 495.733 379.58 494.48 378.569Z" fill="#FF8000"/>
<g style="mix-blend-mode:multiply" opacity="0.3">
<path d="M456.355 375.929C455.52 374.999 454.415 370.904 453.189 365.152C449.673 348.729 445.268 318.768 444.392 311.076C443.193 300.703 448.434 274.581 448.434 270.795C448.434 267.01 441.846 238.302 441.846 238.302L431.944 239.312C437.333 258.172 442.304 272.56 442.304 272.56C434.693 303.37 449.269 357.109 451.546 365.165C450.584 369.024 449.922 372.951 449.565 376.912C449.501 377.489 449.635 378.071 449.946 378.561C450.258 379.051 450.727 379.42 451.276 379.607C452.937 380.314 454.771 380.511 456.544 380.173C456.544 380.173 458.699 379.297 466.122 380.792C461.178 378.812 457.312 377.047 456.355 375.929Z" fill="#CC41B6"/>
</g>
<path d="M337.736 183.404C337.736 183.404 339.084 191.689 338.221 194.842C337.359 197.994 332.711 196.189 332.711 196.189L337.736 183.404Z" fill="#FFC685"/>
<path d="M323.632 198.291C326.852 193.037 331.176 189.898 333.466 191.218C335.864 192.565 335.15 198.291 331.89 203.922" stroke="#23A8FA" stroke-width="4.04152" stroke-miterlimit="10" stroke-linecap="round"/>
<path d="M412.208 35.9157C406.82 43.9179 407.978 52.1491 404.408 64.0043C399.329 80.8844 384.47 90.7726 381.425 93.7229C367.725 107.006 371.389 118.551 370.163 125.866C368.506 135.863 380.644 148.31 397.363 151.611C417.88 155.653 429.318 133.276 440.607 117.42C464.533 83.7404 449.943 30.2171 432.915 28.0886C425.896 27.2129 415.765 30.7291 412.208 35.9157Z" fill="#5E433C"/>
<path d="M425.316 96.269C425.316 96.269 424.252 88.186 484.161 89.4389L483.123 104.635C483.123 104.635 426.987 118.39 425.316 96.269Z" fill="#FFC685"/>
<path d="M479.877 90.9342C479.877 90.9342 504.894 78.4459 518.568 70.7266L523.148 75.0241C510.958 86.3699 497.532 96.3115 483.124 104.662L479.877 90.9342Z" fill="#FFC685"/>
<path d="M535.69 65.0416C535.69 65.0416 538.182 65.1763 537.509 68.1131C536.835 71.05 535.03 75.8863 533.737 75.8055C532.59 75.6891 531.451 75.5001 530.328 75.2397L535.69 65.0416Z" fill="#FFC685"/>
<path d="M535.933 63.6001C535.933 63.6001 539.556 63.6001 539.233 66.6043C538.91 69.6085 537.684 74.62 536.377 74.6873C535.07 74.7547 530.665 72.5184 530.665 72.5184L535.933 63.6001Z" fill="#FFC685"/>
<path d="M516.614 71.9121C516.614 71.9121 527.392 63.0343 533.871 64.2467C539.691 65.3244 533.144 74.2293 532.524 75.7651C531.905 77.3008 528.052 75.8863 526.26 75.3474C525.007 74.9702 527.836 72.5857 526.678 73.4883C526.583 73.5692 525.977 74.1754 525.923 74.2427C525.307 74.9443 524.539 75.4968 523.678 75.8585C522.817 76.2203 521.885 76.3818 520.952 76.3309L516.614 71.9121Z" fill="#FFC685"/>
<path d="M525.775 66.6851C525.775 66.6851 540.796 58.6021 543.207 57.0259C545.619 55.4497 544.447 59.5721 538.91 63.398C533.373 67.224 526.543 71.6427 526.543 71.6427L525.775 66.6851Z" fill="#FFC685"/>
<path d="M408.032 128.413C403.883 127.402 398.831 130.582 396.648 134.488C391.879 142.989 400.878 154.534 403.64 158.064C405.823 160.866 411.103 167.629 414.593 166.389C418.917 164.854 417.853 152.042 416.802 145.966C415.67 139.486 414.013 129.881 408.032 128.413Z" fill="#E6E6E6"/>
<path d="M422.164 74.9972L421.639 74.8086C416.358 72.936 413.555 70.8748 413.919 69.1774C414.162 68.0862 415.671 67.5339 417.853 67.7494C418.456 67.7895 419.044 67.9525 419.581 68.2281C420.119 68.5038 420.594 68.8865 420.978 69.3525C421.975 70.8527 422.418 72.6534 422.231 74.4449L422.164 74.9972ZM417.166 68.5981C415.724 68.5981 414.876 68.9349 414.781 69.3795C414.687 69.824 415.859 71.737 421.369 73.7713C421.441 72.3975 421.057 71.0385 420.278 69.9049C419.97 69.5295 419.586 69.2229 419.152 69.0048C418.719 68.7867 418.244 68.6619 417.759 68.6385L417.166 68.5981Z" fill="white"/>
<path d="M427.822 73.4479C418.5 72.9629 397.915 73.65 393.011 84.1175C392.108 86.0305 393.159 93.1975 396.163 107.262C400.946 129.639 401.188 131.619 403.788 142.06C407.076 155.221 406.2 156.353 408.099 158.508C416.384 167.939 435.919 165.729 448.38 160.664C452.421 159.034 454.712 158.495 456.463 156.42C465.408 146.115 456.045 85.9632 443.826 76.9371C439.771 73.9329 431.163 72.707 427.822 73.4479Z" fill="#E6E6E6"/>
<path d="M400.623 130.124C401.364 132.158 402.078 134.165 402.738 136.28C403.398 138.395 404.018 140.443 404.624 142.518C405.23 144.592 405.755 146.721 406.24 148.849C406.747 150.965 407.081 153.119 407.237 155.289C407.103 154.211 406.901 153.147 406.658 152.082C406.416 151.018 406.173 149.981 405.904 148.93C405.365 146.829 404.799 144.727 404.206 142.639L400.623 130.124Z" fill="#5E433C"/>
<g style="mix-blend-mode:multiply" opacity="0.17">
<path d="M437.656 205.875C437.831 214.659 432.887 230.609 430.665 237.264L431.15 238.611L431.608 238.342C432.955 242.949 434.194 247.287 435.393 251.248C441.199 235.594 437.656 205.875 437.656 205.875Z" fill="#4F0F14"/>
</g>
<path d="M448.542 187.729C448.542 187.729 437.428 235.499 399.289 282.57C397.363 284.941 396.662 289.077 394.843 291.394C392.58 294.29 389.226 295.354 387.124 298.13C357.688 337.198 344.998 365.125 344.998 365.125L334.544 357.756C334.544 357.756 350.036 298.83 374.757 274.945C374.757 274.945 393.995 191.191 414.822 167.979L448.542 187.729Z" fill="#FFC685"/>
<path d="M354.792 375.969C348.851 373.208 349.632 357.648 349.592 356.179C349.053 357.904 338.815 350.427 336.942 349.444C333.888 352.057 331.037 354.899 328.414 357.944C328.043 358.38 327.829 358.927 327.807 359.499C327.785 360.071 327.956 360.634 328.293 361.097C329.259 362.639 330.667 363.855 332.335 364.586C332.335 364.586 337.225 376.71 341.172 380.94C344.728 384.739 353.876 384.618 356.867 384.645C359.857 384.672 367.213 381.722 354.792 375.969Z" fill="#FFAD2B"/>
<path d="M429.412 168.1C429.412 168.1 448.057 168.37 457.554 154.224C457.554 154.224 469.679 181.276 472.508 227.12C472.508 227.12 439.165 233.519 431.15 238.638L418.338 201.766L429.412 168.1Z" fill="#23A8FA"/>
<path d="M451.519 83.2284C451.519 83.2284 445.227 83.2284 441.644 81.3154C438.761 79.7527 437.292 78.6211 436.888 76.2905C435.833 70.9957 436.149 65.5191 437.804 60.3803L417.112 31.4431C417.112 31.4431 423.592 51.9336 422.581 68.1266C422.258 73.394 416.896 78.3247 415.091 79.362C411.198 81.6118 411.925 82.8647 404.313 83.7134C404.313 83.7134 421.046 107.531 440.485 95.838C440.572 95.7998 440.654 95.7499 440.728 95.6898C444.634 93.2244 448.151 88.8596 451.519 83.2284Z" fill="#FFC685"/>
<path d="M436.767 75.5361C436.592 74.4988 436.511 73.2055 436.376 72.1816L436.134 72.3163C433.965 71.5518 431.971 70.3587 430.273 68.8081C428.574 67.2575 427.204 65.381 426.246 63.2903C426.246 63.2903 426.34 74.3236 436.767 75.5361Z" fill="#E09153"/>
<path d="M444.379 44.1604C444.379 44.6049 444.54 45.1842 444.621 45.8443C445.052 49.1314 445.605 54.5471 445.659 56.8238C445.868 62.5125 443.864 68.0608 440.068 72.3028C439.775 72.6074 439.411 72.8336 439.009 72.9607C438.606 73.0878 438.178 73.1118 437.764 73.0303C429.439 71.5349 424.117 64.9473 421.153 54.0351C419.658 48.6464 418.944 34.2182 423.848 31.4161C430.745 27.4958 442.708 33.7063 444.379 44.1604Z" fill="#FFC685"/>
<path d="M419.645 60.7441C421.153 63.1151 423.848 64.0985 425.667 62.94C427.485 61.7814 427.728 58.8985 426.205 56.5409C424.683 54.1833 421.989 53.1865 420.183 54.345C418.378 55.5036 418.122 58.3731 419.645 60.7441Z" fill="#FFC685"/>
<path d="M447.572 83.2284C447.572 83.2284 450.778 79.9413 470.016 87.6472C470.016 87.6472 474.96 109.498 470.635 114.901L453.647 113.931L447.572 83.2284Z" fill="#FFAD2B"/>
<g style="mix-blend-mode:multiply" opacity="0.3">
<path d="M521.424 76.6273C521.424 76.6273 486.721 100.701 481.938 102.493C477.156 104.285 458.322 104.446 458.322 104.446L460.127 114.375L470.608 114.968C471.956 113.365 472.346 110.334 472.373 106.885C478.718 105.821 483.151 104.743 483.151 104.743C496.85 96.726 509.677 87.3033 521.424 76.6273Z" fill="#CC41B6"/>
</g>
<path d="M410.295 100.27C410.066 95.9861 393.294 101.55 388.74 103.436C371.51 110.495 354.239 133.074 351.72 134.111C346.075 136.55 333.196 176.049 329.586 181.074L337.534 186.759C337.534 186.759 337.938 183.458 341.737 175.577C346.426 165.864 361.11 146.182 362.322 143.326C362.295 143.326 410.955 111.788 410.295 100.27Z" fill="#FFC685"/>
<path d="M407.493 81.7465C407.493 81.7465 399.181 79.6853 373.329 110.212C373.329 110.212 382.624 122.862 387.757 125.772C387.757 125.772 404.556 114.011 414.7 102.21C424.845 90.4088 407.493 81.7465 407.493 81.7465Z" fill="#FFAD2B"/>
<path d="M444.783 48.2423C444.783 48.2423 445.146 53.2134 448.151 55.2476C450.414 56.7699 446.803 58.885 445.631 58.7099" fill="#FFC685"/>
<path d="M456.436 103.827C455.776 101.846 453.351 83.7269 453.337 83.7134C451.999 83.2191 450.598 82.9153 449.175 82.8108C447.154 82.5144 443.584 82.5144 441.698 81.275C440.903 80.7496 446.777 88.9943 434.8 90.8265C423.592 91.069 415.091 79.3621 415.091 79.3621C410.794 81.1403 402.562 81.5984 403.061 83.5383C400.425 91.3398 399.799 99.6801 401.242 107.787C401.242 107.787 404.772 122.35 410.538 131.552C410.538 131.552 413.488 148.553 412.895 152.392V166.996C427.714 174.971 443.772 175.995 454.873 160.839L459.224 161.621C455.372 146.451 454.146 134.488 456.827 129.504C460.68 122.431 459.359 112.489 456.436 103.827Z" fill="#FFAD2B"/>
<path d="M337.508 186.759C337.508 186.759 335.743 195.583 333.183 198.991L321.193 190.463L330.031 180.171L337.508 186.759Z" fill="#FFC685"/>
<path d="M333.83 197.954C333.83 197.954 332.927 200.069 331.634 200.015C330.341 199.961 329.371 198.749 328.94 198.668C328.509 198.587 326.757 198.56 326.326 197.401C325.895 196.243 325.841 197.105 324.265 196.526C322.689 195.946 323.551 194.774 322.918 194.168C322.285 193.562 319.348 193.01 321.301 190.342L333.83 197.954Z" fill="#FFC685"/>
<path d="M444.19 29.7995C439.367 25.3673 428.886 26.216 420.103 29.8938C412.505 33.0731 414.31 41.6277 416.479 49.347C418.243 55.6652 423.551 53.9274 423.551 53.9274C423.551 53.9274 437.117 51.4216 438.141 34.7571C439.637 35.1208 442.183 39.2432 444.621 45.5345C444.635 45.5479 449.013 34.2452 444.19 29.7995Z" fill="#5E433C"/>
<path d="M434.747 34.9323C434.747 34.9323 437.67 43.3925 433.399 47.6226C429.129 51.8528 431.81 55.9616 431.81 55.9616C431.552 54.9705 431.552 53.9298 431.812 52.9391C432.071 51.9484 432.581 51.0409 433.291 50.3035C435.757 47.4475 439.825 39.4587 438.317 35.7405L434.747 34.9323Z" fill="#5E433C"/>
<path d="M458.106 139.944C457.933 139.948 457.761 139.925 457.594 139.877C457.146 139.743 456.768 139.437 456.543 139.026C456.319 138.615 456.266 138.131 456.395 137.681C468.062 97.5085 439.892 79.4563 439.61 79.2812C439.412 79.1582 439.241 78.9976 439.106 78.8086C438.971 78.6195 438.874 78.4056 438.822 78.1792C438.769 77.9528 438.762 77.7182 438.8 77.4889C438.838 77.2596 438.921 77.0401 439.044 76.8428C439.167 76.6456 439.327 76.4744 439.516 76.3393C439.705 76.2041 439.919 76.1074 440.146 76.0549C440.372 76.0024 440.607 75.9949 440.836 76.033C441.065 76.0712 441.285 76.1541 441.482 76.277C447.166 80.2128 451.92 85.3442 455.412 91.3115C460.976 100.607 466.27 116.369 459.79 138.651C459.692 139.023 459.473 139.351 459.169 139.585C458.864 139.819 458.49 139.945 458.106 139.944Z" fill="#E6E6E6"/>
<path d="M336.942 349.43C336.942 349.43 335.594 357.675 346.372 355.156L336.942 349.43Z" fill="#FFC685"/>
<path d="M345.308 356.759C345.308 356.759 344.782 352.596 345.752 350.481C346.722 348.366 351.235 350.656 352.65 352.69C354.064 354.724 349.201 358.348 349.201 358.348L345.308 356.759Z" fill="#FFAD2B"/>
<path d="M358.227 383.042C355.236 383.042 346.102 383.136 342.532 379.337C338.572 375.107 333.695 362.983 333.695 362.983C332.028 362.252 330.619 361.036 329.653 359.493C329.316 359.031 329.145 358.468 329.167 357.896C329.189 357.324 329.403 356.776 329.775 356.341L329.95 356.139C329.37 356.772 328.818 357.378 328.36 357.931C327.988 358.366 327.774 358.914 327.752 359.486C327.73 360.058 327.902 360.62 328.239 361.083C329.205 362.626 330.613 363.842 332.28 364.572C332.28 364.572 337.171 376.697 341.118 380.927C344.674 384.726 353.822 384.605 356.812 384.632C358.402 384.632 361.272 383.81 361.689 382.139C360.624 382.712 359.436 383.022 358.227 383.042Z" fill="#FF8000"/>
<path d="M324 302H294V390H324V302Z" fill="#D7F0FF"/>
<path d="M229.217 268.452H194.344V390.267H229.217V268.452Z" fill="#D7F0FF"/>
<path d="M325.472 268.452H290.599V390.267H325.472V268.452Z" fill="#D7F0FF"/>
<path d="M325.524 258.093H302.562V338.274H325.524V258.093Z" fill="#D7F0FF"/>
<path d="M321.79 250.188H306.311V330.368H321.79V250.188Z" fill="#D7F0FF"/>
<path d="M153.011 250.609H130.048V330.79H153.011V250.609Z" fill="#D7F0FF"/>
<path d="M149.262 242.704H133.783V322.885H149.262V242.704Z" fill="#D7F0FF"/>
<path d="M249.74 324.632H214.867V390.267H249.74V324.632Z" fill="#D7F0FF"/>
<path d="M30 325H17V384H30V325Z" fill="#D7F0FF"/>
<path d="M189.616 287.62H154.743V390.252H189.616V287.62Z" fill="#D7F0FF"/>
<path d="M292.669 390.267H257.781V287.62L292.669 264.763V390.267Z" fill="#D7F0FF"/>
<path d="M159.32 261.029H124.447V390.267H159.32V261.029Z" fill="#D7F0FF"/>
<path d="M117.37 272.533H82.4971V390.252H117.37V272.533Z" fill="#D7F0FF"/>
<path d="M52.3823 390.267H17.5093V277.366L52.3823 261.315V390.267Z" fill="#D7F0FF"/>
<path d="M95.1753 302.241H60.3022V390.252H95.1753V302.241Z" fill="#D7F0FF"/>
<path d="M301 347H0V375H301V347Z" fill="#D7F0FF"/>
<path d="M321 367H-3V388H321V367Z" fill="#D7F0FF"/>
<path d="M175.176 339.132C180.069 335.834 178.789 325.806 178.654 324.707C177.916 318.955 175.642 318.202 176.2 314.588C177.208 308.43 184.286 308.189 185.144 302.904C186.077 297.106 177.946 295.119 177.118 286.822C176.516 280.799 180.642 279.61 180.581 272.397C180.581 267.654 178.699 258.921 172.33 256.948C165.961 254.976 157.558 260.908 156.61 266.69C155.661 272.473 162.362 275.951 160.63 281.146C159.29 285.166 154.818 284.428 153.342 288.388C151.054 294.411 160.028 300.525 157.694 305.418C155.992 308.987 150.692 307.029 148.117 310.658C144.308 316.034 150.06 328.501 158.853 334.961C160.163 335.925 169.83 342.776 175.176 339.132Z" fill="#249431"/>
<path d="M169.544 263.694C169.544 263.694 171.728 275.318 169.273 284.639C166.819 293.959 169.83 294.065 168.671 303.009C167.511 311.953 163.039 318.217 166.458 324.948C169.876 331.678 169.047 343.634 169.047 343.634" stroke="#2FBF40" stroke-width="1.50575" stroke-miterlimit="10"/>
<path d="M193.109 361.402C198.876 360.167 201.406 350.38 201.692 349.356C203.197 343.739 201.285 342.173 203.197 339.042C206.42 333.696 213.075 336.105 215.831 331.513C218.842 326.484 212.036 321.62 214.325 313.594C216.011 307.737 220.348 308.204 222.908 301.548C224.639 297.137 226.16 288.343 220.98 284.142C215.8 279.941 205.787 282.335 202.761 287.349C199.734 292.363 204.658 298.1 201.119 302.271C198.379 305.494 194.509 303.16 191.663 306.276C187.282 311.095 193.365 320.024 189.375 323.713C186.484 326.393 182.283 322.599 178.533 325.023C173.007 328.607 173.715 342.309 179.497 351.584C180.37 352.849 186.739 362.787 193.109 361.402Z" fill="#249431"/>
<path d="M215.891 289.262C215.891 289.262 213.602 300.871 207.865 308.61C202.128 316.35 204.854 317.57 200.487 325.445C196.12 333.32 189.615 337.491 190.278 345.019C190.941 352.548 185.761 363.329 185.761 363.329" stroke="#2FBF40" stroke-width="1.50575" stroke-miterlimit="10"/>
<path d="M182.433 355.319C184.737 349.296 177.359 341.18 176.561 340.261C172.33 335.578 169.8 336.331 168.083 332.732C165.147 326.604 171.306 321.996 168.791 316.756C166.021 310.989 157.543 314.287 151.641 307.391C147.319 302.346 150.286 298.763 145.768 292.333C142.757 288.117 135.695 281.477 128.783 283.675C121.872 285.874 118.078 296.384 120.833 302.136C123.589 307.888 131.72 306.834 133.391 312.54C134.686 316.967 130.244 319.075 131.388 323.532C133.15 330.399 144.94 330.203 145.859 336.03C146.566 340.261 140.619 341.812 140.573 346.661C140.573 353.828 153.402 361.372 165.268 361.718C167.029 361.778 179.858 361.929 182.433 355.319Z" fill="#2FBF40"/>
<path d="M130.5 291.505C130.5 291.505 139.67 300.54 143.284 310.357C146.898 320.175 149.623 318.428 154.155 327.116C158.687 335.804 158.582 344.191 165.825 348.076C173.067 351.961 179.753 363.133 179.753 363.133" stroke="#249431" stroke-width="1.50575" stroke-miterlimit="10"/>
<path d="M165.313 361.733C165.735 361.733 166.819 361.733 168.219 361.733C162.498 358.722 148.298 352.699 147.801 343.664C147.591 339.538 150.346 337.325 148.675 333.877C146.552 329.51 140.935 330.639 137.352 325.174C135.994 322.964 135.193 320.458 135.018 317.871C134.325 312.074 136.719 310.658 135.575 307.571C134.069 303.581 129.552 304.349 124.191 299.757C122.636 298.412 121.296 296.838 120.216 295.089C119.679 297.508 119.91 300.035 120.879 302.316C123.619 308.068 131.765 307.014 133.437 312.721C134.731 317.148 130.29 319.256 131.434 323.713C133.196 330.579 144.986 330.383 145.904 336.211C146.612 340.442 140.664 341.993 140.619 346.841C140.514 353.903 153.403 361.447 165.313 361.733Z" fill="#249431"/>
<path d="M185.987 366.717C191.272 364.052 191.257 353.888 191.257 352.774C191.257 346.947 189.043 345.908 190.097 342.369C191.874 336.346 198.951 337.009 200.472 331.829C202.143 326.167 194.283 323.171 194.449 314.784C194.615 308.656 198.876 308.023 199.734 300.841C200.291 296.098 199.553 287.153 193.44 284.398C187.327 281.642 178.217 286.476 176.546 292.122C174.874 297.769 181.063 302.091 178.729 307.044C176.877 310.884 172.525 309.589 170.553 313.353C167.541 319.136 175.687 326.288 172.751 330.88C170.613 334.208 165.569 331.588 162.542 334.901C158.025 339.779 162.226 352.97 170.191 360.498C171.411 361.583 180.129 369.623 185.987 366.717Z" fill="#2FBF40"/>
<path d="M189.857 290.752C189.857 290.752 190.579 302.618 186.966 311.607C183.352 320.596 186.318 321.063 184.044 329.841C181.771 338.62 176.516 344.282 179.076 351.434C181.635 358.586 179.301 370.391 179.301 370.391" stroke="#249431" stroke-width="1.50575" stroke-miterlimit="10"/>
<path d="M170.237 360.453C170.523 360.724 171.245 361.402 172.254 362.23C170.161 356.674 164.199 343.679 169.484 337.159C171.878 334.148 175.145 334.374 176.124 330.971C177.374 326.664 172.826 323.969 173.745 317.991C174.197 315.638 175.198 313.425 176.666 311.532C179.783 307.135 182.298 307.647 183.427 304.816C184.933 301.172 181.259 298.793 180.416 292.409C180.175 290.524 180.231 288.614 180.581 286.747C178.714 288.073 177.304 289.946 176.546 292.107C174.874 297.754 181.063 302.075 178.729 307.029C176.877 310.869 172.525 309.574 170.553 313.338C167.541 319.12 175.687 326.273 172.751 330.865C170.613 334.193 165.569 331.573 162.542 334.886C158.115 339.764 162.301 352.924 170.237 360.453Z" fill="#249431"/>
<path d="M191.739 390.523H152.424L139.986 349.311H204.191L191.739 390.523Z" fill="white"/>
<path d="M335.974 200.347L298.12 265.832L288.408 260.216L326.277 194.701L326.699 193.993" stroke="#A8A8A8" stroke-width="1.50575" stroke-miterlimit="10"/>
<path d="M311.948 269.953L280.035 251.506C277.983 250.32 275.358 251.022 274.172 253.074L205.87 371.234C204.684 373.286 205.386 375.911 207.438 377.097L239.35 395.544C241.402 396.73 244.027 396.028 245.213 393.976L313.515 275.816C314.701 273.764 314 271.139 311.948 269.953Z" fill="#095482"/>
<path d="M213.497 379.456C212.964 379.148 212.496 378.739 212.122 378.251C211.747 377.763 211.472 377.206 211.312 376.612C211.153 376.017 211.112 375.398 211.192 374.787C211.273 374.177 211.472 373.589 211.78 373.056L279.449 255.985C279.907 255.192 280.588 254.552 281.407 254.142C282.226 253.733 283.147 253.572 284.056 253.681L280.502 251.633C279.971 251.323 279.383 251.12 278.774 251.038C278.164 250.955 277.543 250.994 276.949 251.153C276.354 251.311 275.796 251.585 275.308 251.959C274.82 252.334 274.41 252.801 274.103 253.334L206.209 370.783C205.587 371.861 205.418 373.142 205.74 374.345C206.062 375.548 206.848 376.574 207.926 377.197L239.094 395.326C239.921 395.813 240.881 396.024 241.835 395.929L213.497 379.456Z" fill="#00629E"/>
<path d="M442.102 34.7841C442.102 34.7841 447.774 36.6297 449.336 44.578C450.899 52.5263 453.701 57.7803 454.146 57.7803C454.59 57.7803 450.428 55.6518 448.757 47.7035C447.789 43.0376 445.179 38.8739 441.401 35.9696L442.102 34.7841Z" fill="#5E433C"/>
<g style="mix-blend-mode:multiply" opacity="0.3">
<path d="M373.329 110.212C373.329 110.212 373.868 110.94 374.676 112.058C363.009 121.313 353.472 133.316 351.639 134.111C346.251 136.442 334.22 172.681 330.085 180.211L321.247 190.504C319.509 193.037 322.338 193.589 322.958 194.182C323.578 194.774 322.716 195.96 324.305 196.539C325.895 197.119 325.935 196.27 326.366 197.415C326.797 198.56 328.562 198.614 328.98 198.681C329.398 198.749 330.327 199.961 331.674 200.028C333.022 200.096 333.587 198.547 333.803 198.102C318.418 186.422 331.284 181.842 331.284 181.842L353.108 137.883C353.108 137.883 379.432 109.175 386.302 100.796C393.173 92.4161 409.608 81.3424 409.608 81.3424L408.975 81.019C406.537 81.5579 404.327 82.0294 403.465 82.73C398.723 84.8316 389.401 91.1902 373.329 110.212Z" fill="#CC41B6"/>
</g>
<path d="M407.076 138.597L404.839 135.903C422.959 121.151 405.257 76.4117 405.082 75.9537L408.571 75.078C409.352 76.964 427.216 122.202 407.076 138.597Z" fill="#E6E6E6"/>
<path d="M402.711 53.8331C402.711 53.8331 421.261 52.9304 452.368 28.7083C468.938 15.8023 433.628 31.2005 420.965 38.2732C408.1 45.4536 391.354 53.9813 402.711 53.8331Z" fill="#FFAD2B"/>
<path d="M408.261 48.9428L443.746 30.2979C443.746 30.2979 434.774 16.0448 417.732 24.6263C401.202 32.9519 408.261 48.9428 408.261 48.9428Z" fill="#FFAD2B"/>
<path d="M419.281 75.4553C416.587 76.4791 414.687 77.9879 413.973 79.7662C414.364 79.645 414.741 79.5102 415.091 79.3621C416.686 78.2906 418.101 76.9718 419.281 75.4553Z" fill="#5E433C"/>
<path d="M441.63 81.3019C442.102 81.5965 442.615 81.819 443.153 81.9621C441.938 80.2162 440.407 78.7129 438.64 77.5299C438.07 77.1542 437.476 76.8167 436.861 76.5195C437.387 78.7019 438.842 79.7931 441.63 81.3019Z" fill="#5E433C"/>
<path d="M439.084 79.8605C444.123 84.0906 445.389 90.7322 446.09 94.4369V94.7064C447.057 99.8403 446.695 105.136 445.039 110.091L446.629 110.616C448.355 105.407 448.731 99.8446 447.72 94.4504V94.181C447.113 89.841 445.578 85.6828 443.22 81.989C442.683 81.8459 442.17 81.6235 441.698 81.3289C440.824 80.8751 439.982 80.362 439.179 79.7932" fill="#5E433C"/>
<path d="M415.091 79.3216C414.741 79.4698 414.364 79.6045 413.973 79.7258V79.8335C412.895 82.7704 415.105 86.1787 419.51 92.9685C420.746 94.8796 422.096 96.715 423.552 98.4649C424.731 99.8781 425.803 101.378 426.758 102.951C429.077 106.895 430.695 111.212 431.54 115.709L433.17 115.385C432.292 110.702 430.606 106.207 428.186 102.102C427.19 100.463 426.073 98.9008 424.845 97.4276C423.431 95.7089 422.117 93.9097 420.911 92.0389C416.937 85.9228 414.755 82.6087 415.522 80.3994C415.522 80.2781 416.695 78.2035 416.762 78.0822" fill="#5E433C"/>
<path d="M447.655 104.251L442.987 105.228L443.743 108.841L448.411 107.864L447.655 104.251Z" fill="#5E433C"/>
<path d="M449.427 105.855L426.484 110.656C425.828 110.793 425.408 111.436 425.545 112.091L428.514 126.28C428.652 126.935 429.294 127.355 429.95 127.218L452.893 122.416C453.549 122.279 453.969 121.637 453.832 120.981L450.863 106.793C450.725 106.138 450.083 105.718 449.427 105.855Z" fill="#976C61"/>
<path d="M446.784 118.684C448.676 115.814 447.883 111.954 445.014 110.062C442.144 108.169 438.284 108.962 436.391 111.831C434.499 114.701 435.292 118.561 438.161 120.454C441.031 122.346 444.891 121.553 446.784 118.684Z" fill="#5E433C"/>
<path d="M446.157 114.348C446.346 115.248 446.263 116.184 445.92 117.037C445.577 117.89 444.988 118.622 444.229 119.14C443.469 119.658 442.573 119.94 441.653 119.949C440.734 119.958 439.833 119.694 439.063 119.19C438.294 118.687 437.691 117.966 437.331 117.12C436.971 116.274 436.871 115.34 437.042 114.437C437.213 113.533 437.648 112.701 438.292 112.045C438.936 111.389 439.761 110.939 440.661 110.751C441.867 110.5 443.123 110.738 444.153 111.412C445.184 112.087 445.905 113.143 446.157 114.348Z" fill="#D8F0EF"/>
<path d="M431.662 125.584C431.464 125.627 431.26 125.631 431.061 125.594C430.863 125.558 430.673 125.482 430.504 125.372C430.335 125.262 430.189 125.119 430.075 124.951C429.962 124.784 429.883 124.596 429.843 124.398L427 110.926C426.987 110.801 426.987 110.674 427 110.549H426.798C426.6 110.591 426.411 110.671 426.244 110.786C426.077 110.901 425.934 111.048 425.823 111.218C425.713 111.388 425.638 111.579 425.602 111.779C425.566 111.978 425.569 112.183 425.613 112.381L428.442 125.92C428.483 126.119 428.564 126.307 428.679 126.475C428.794 126.642 428.94 126.785 429.111 126.895C429.281 127.005 429.472 127.081 429.671 127.117C429.871 127.153 430.076 127.149 430.274 127.106L452.57 122.445C452.904 122.372 453.204 122.189 453.422 121.925C453.639 121.661 453.761 121.332 453.769 120.99L431.662 125.584Z" fill="#5E433C"/>
<g style="mix-blend-mode:multiply" opacity="0.3">
<path d="M413.785 46.6526C413.515 45.7366 432.147 36.7509 439.381 32.642L439.125 32.7229L440.472 31.9954C440.957 31.7125 441.361 31.4565 441.644 31.2544C445.686 28.4119 418.621 40.9676 413.987 36.6431C411.4 34.2317 412.909 29.813 414.755 26.3642C405.715 32.5073 406.2 41.3313 407.264 45.9252C399.707 50.3843 395.248 54.0082 402.617 53.8465C402.617 53.8465 411.75 53.3885 427.917 44.7801C422.703 45.8039 413.987 47.3801 413.785 46.6526Z" fill="#CC41B6"/>
</g>
<g style="mix-blend-mode:multiply" opacity="0.3">
<path d="M387.313 297.914L377.99 310.577C377.99 310.577 383.77 292.781 384.618 294.034C385.467 295.287 385.723 297.564 387.313 297.914Z" fill="#CC41B6"/>
</g>
<g style="mix-blend-mode:multiply" opacity="0.3">
<path d="M465.072 285.439L464.425 293.617C464.425 293.617 460.033 281.357 461.138 282.152C462.242 282.947 463.495 285.655 465.072 285.439Z" fill="#CC41B6"/>
</g>
<path d="M381.668 231.552C381.668 231.552 414.485 262.915 477.492 232.778C477.492 232.778 467.442 192.444 457.554 154.211C457.554 154.211 439.798 164.988 412.895 152.419C396.776 176.17 386.112 203.194 381.668 231.552Z" fill="#095482"/>
<g style="mix-blend-mode:multiply" opacity="0.3">
<path d="M432.227 133.976C413.677 133.882 409.19 108.757 409.19 108.757L402.953 113.836C404.768 120.035 407.314 125.995 410.538 131.592C410.538 131.592 413.488 148.593 412.895 152.433C396.777 176.18 386.113 203.199 381.668 231.552C382.914 232.656 384.237 233.669 385.628 234.583C378.987 256.529 374.757 274.999 374.757 274.999C355.762 293.347 342.222 332.388 336.955 349.484C333.901 352.098 331.051 354.939 328.427 357.985C328.056 358.42 327.842 358.968 327.82 359.54C327.798 360.112 327.969 360.674 328.306 361.137C329.272 362.68 330.68 363.896 332.348 364.626C332.348 364.626 337.238 376.751 341.185 380.981C343.098 383.029 346.655 383.931 349.996 384.349C347.18 382.341 345.025 379.526 341.778 373.571C338.531 367.617 337.979 364.141 338.599 360.625C338.72 359.924 338.895 359.278 339.084 358.497C339.272 357.769 339.515 357.015 339.771 356.233C339.771 356.031 339.905 355.789 339.986 355.533V355.344C340.067 355.115 340.134 354.873 340.229 354.603V354.374C340.309 354.105 340.404 353.835 340.485 353.539L340.768 352.636C344.041 342.142 352.367 315.602 358.591 304.138C365.758 290.976 378.327 278.016 378.327 278.016C378.327 278.016 396.069 249.726 394.668 241.333C394.616 240.746 394.616 240.155 394.668 239.568C394.857 235.675 396.648 228.023 399.221 218.956C399.464 218.067 399.733 217.178 399.989 216.262V216.141L400.757 213.541L400.851 213.231C401.107 212.409 401.35 211.574 401.619 210.738L401.741 210.321C401.983 209.539 402.226 208.758 402.482 207.963C402.482 207.761 402.603 207.559 402.67 207.357L403.357 205.175C403.452 204.905 403.532 204.649 403.613 204.38L404.26 202.399L404.583 201.416C404.772 200.85 404.947 200.284 405.136 199.719C405.324 199.153 405.418 198.87 405.567 198.439C405.715 198.008 405.823 197.671 405.957 197.28C409.608 186.422 413.501 175.981 416.546 169.057L416.654 168.828C416.856 168.356 417.058 167.912 417.26 167.481C417.304 167.37 417.353 167.263 417.408 167.157C417.583 166.78 417.745 166.416 417.92 166.066L418.19 165.5L418.553 164.759C418.769 164.342 418.984 163.938 419.187 163.574C419.604 162.806 419.995 162.079 420.359 161.365C420.561 160.987 420.722 160.624 420.911 160.26C421.1 159.896 421.194 159.694 421.315 159.425L421.962 158.077C421.962 157.97 422.056 157.862 422.096 157.768C425.882 149.105 424.575 146.007 426.663 142.1C429.156 137.412 440.324 137.614 446.305 135.62C452.287 133.626 450.764 134.084 432.227 133.976Z" fill="#CC41B6"/>
</g>
<path d="M541 248H508C505.239 248 503 250.239 503 253V383C503 385.761 505.239 388 508 388H541C543.761 388 546 385.761 546 383V253C546 250.239 543.761 248 541 248Z" fill="#D7F0FF"/>
</g>
<defs>
<clipPath id="clip0_1_3066">
<rect width="545.902" height="388.04" fill="white"/>
</clipPath>
</defs>
</svg>
